<?xml version="1.0" encoding="utf-8"?>
<!-- Generator: Adobe Illustrator 16.0.0, SVG Export Plug-In . SVG Version: 6.00 Build 0)  -->
<!DOCTYPE svg PUBLIC "-//W3C//DTD SVG 1.1//EN" "http://www.w3.org/Graphics/SVG/1.1/DTD/svg11.dtd">
<svg version="1.1" id="Layer_1" xmlns="http://www.w3.org/2000/svg" xmlns:xlink="http://www.w3.org/1999/xlink" x="0px" y="0px"
	 width="225.176px" height="40px" viewBox="0 0 225.176 40" enable-background="new 0 0 225.176 40" xml:space="preserve">
<g id="OVsvDd_1_" display="none">
	
		<image display="inline" overflow="visible" width="276" height="48" id="OVsvDd_2_" xlink:href="AA6E943566221B0C.jpg"  transform="matrix(0.7165 0.6976 -0.6976 0.7165 74.4043 -9.9785)">
	</image>
</g>
<g display="none">
	<g display="inline">
		<g display="none">
			<path display="inline" fill="#121212" d="M36.976,30.574L25.962,19.14l-2.182,2.185l11.011,11.433
				c0.604,0.604,1.582,0.604,2.185,0C37.579,32.156,37.579,31.176,36.976,30.574z"/>
			<g>
				<path display="inline" fill="#121212" d="M29.991,15.165c0-5.498-4.458-9.955-9.955-9.955c-5.498,0-9.955,4.457-9.955,9.955
					c0,3.648,1.969,6.831,4.896,8.563c0.587-0.759,1.097-1.619,1.448-2.497c-2.037-1.215-3.408-3.434-3.408-5.982
					c0-3.847,3.12-6.965,6.966-6.965c3.847,0,6.966,3.118,6.966,6.965c0,2.911-1.788,5.405-4.325,6.446
					c-0.644,1.135-1.438,2.285-2.355,3.411C25.658,24.981,29.991,20.586,29.991,15.165z"/>
			</g>
		</g>
		<g display="none">
			<path display="inline" fill="#6DAD47" d="M6.367,25.555c-0.395-0.399-1.29,0.158-3.017,1.893
				c-1.866,1.846-3.122,3.025-2.254,3.894c0.232,0.23,0.808,0.755,1.06,0.926l5.442-5.444C7.241,26.467,6.709,25.877,6.367,25.555z"
				/>
		</g>
		<g display="none">
			<path display="inline" fill="#6DAD47" d="M15.925,15.997c-0.399-0.395,0.158-1.288,1.893-3.017
				c1.84-1.865,3.024-3.123,3.891-2.254c0.232,0.233,0.757,0.808,0.927,1.061l-5.442,5.442
				C16.836,16.871,16.248,16.341,15.925,15.997z"/>
		</g>
		<g display="none">
			<path display="inline" fill="#6DAD47" d="M23.369,12.515l-5.506,5.506c0.702,2.176-0.85,5.165-2.676,6.986
				c-1.821,1.824-4.468,3.034-6.643,2.334l-5.504,5.506c3.381,1.483,9.676-1.77,14.413-6.506
				C22.186,21.604,24.853,15.899,23.369,12.515z"/>
		</g>
	</g>
</g>
<g display="none">
	<path display="inline" fill="#02458B" d="M53.421,31.07c-1.082,0-1.75-0.063-2.005-0.191c-0.254-0.127-0.542-0.551-0.86-1.273
		l-4.298-9.423h-1.687l0.127,0.796v8.627h0.032c0,0.722-0.08,1.146-0.239,1.273c-0.159,0.128-0.695,0.191-1.608,0.191h-0.191V8.085
		l3.629-0.319c2.208,0,3.629,0.425,4.266,1.274c0.255,0.339,0.446,0.636,0.574,0.891c0.127,0.254,0.223,0.647,0.286,1.178
		c0.084,0.701,0.127,1.555,0.127,2.562c0,1.008-0.016,1.773-0.048,2.292c-0.032,0.521-0.111,1.062-0.238,1.624
		c-0.127,0.562-0.308,1.003-0.542,1.321c-0.531,0.743-1.358,1.157-2.483,1.241l5.284,10.919H53.421z M46.322,18.368
		c1.083,0,1.921-0.202,2.515-0.605c0.36-0.275,0.574-0.976,0.637-2.101c0.021-0.339,0.032-0.901,0.032-1.687
		s-0.01-1.348-0.032-1.688c-0.021-0.339-0.08-0.731-0.175-1.178c-0.096-0.446-0.25-0.753-0.462-0.923
		c-0.594-0.403-1.433-0.605-2.515-0.605h-1.624v7.991l-0.127,0.796H46.322z"/>
	<path display="inline" fill="#02458B" d="M63.353,30.751c-1.634,0.36-2.775,0.541-3.422,0.541s-1.146-0.015-1.496-0.047
		c-0.351-0.032-0.668-0.117-0.955-0.255c-0.286-0.137-0.536-0.254-0.748-0.35c-0.213-0.095-0.403-0.287-0.573-0.573
		c-0.17-0.287-0.308-0.52-0.414-0.701c-0.106-0.18-0.19-0.494-0.255-0.939c-0.063-0.446-0.116-0.806-0.159-1.083
		c-0.042-0.276-0.075-0.727-0.096-1.353c-0.022-0.625-0.031-1.13-0.031-1.512v-3.597c0-1.401,0.031-2.309,0.094-2.722
		c0.064-0.414,0.128-0.854,0.191-1.322c0.064-0.466,0.149-0.8,0.255-1.002c0.106-0.202,0.244-0.451,0.414-0.748
		c0.17-0.297,0.36-0.504,0.573-0.621c0.211-0.117,0.461-0.244,0.748-0.382c0.287-0.138,0.604-0.228,0.955-0.271
		c0.35-0.042,0.749-0.063,1.194-0.063c0.446,0,0.849,0.032,1.209,0.096c0.361,0.063,0.663,0.19,0.908,0.382
		c0.244,0.191,0.457,0.371,0.637,0.541c0.18,0.17,0.329,0.445,0.445,0.828c0.117,0.381,0.207,0.706,0.271,0.971
		c0.063,0.266,0.111,0.68,0.144,1.241c0.031,0.563,0.047,1.014,0.047,1.353v1.655l0.127,1.72l-6.495,0.159l0.127,0.796
		c0,2.716,0.106,4.287,0.318,4.711c0.339,0.7,0.732,1.104,1.178,1.21c0.297,0.085,0.876,0.127,1.735,0.127s1.883-0.138,3.072-0.415
		V30.751z M57.241,18.463c0,0.382,0,0.956,0,1.719l-0.127,0.796h4.52l-0.159-0.828c0-1.697-0.117-2.907-0.35-3.629
		c-0.234-0.721-0.759-1.083-1.576-1.083s-1.396,0.218-1.735,0.653C57.474,16.527,57.283,17.317,57.241,18.463z"/>
	<path display="inline" fill="#02458B" d="M74.272,14.611c0,1.083-1.03,6.568-3.088,16.458h-2.77l-3.247-17.095
		c0.891,0,1.433,0.063,1.624,0.19c0.191,0.128,0.35,0.553,0.478,1.274l2.324,13.084h0.414l2.611-14.548
		c0.997,0,1.528,0.096,1.591,0.286C74.251,14.325,74.272,14.441,74.272,14.611z"/>
	<path display="inline" fill="#02458B" d="M84.364,30.751c-1.635,0.36-2.775,0.541-3.422,0.541c-0.648,0-1.146-0.015-1.496-0.047
		c-0.351-0.032-0.668-0.117-0.956-0.255c-0.286-0.137-0.536-0.254-0.748-0.35c-0.212-0.095-0.403-0.287-0.573-0.573
		c-0.17-0.287-0.308-0.52-0.415-0.701c-0.106-0.18-0.19-0.494-0.254-0.939c-0.063-0.446-0.117-0.806-0.159-1.083
		c-0.042-0.276-0.075-0.727-0.096-1.353c-0.021-0.625-0.031-1.13-0.031-1.512v-3.597c0-1.401,0.031-2.309,0.095-2.722
		c0.064-0.414,0.128-0.854,0.191-1.322c0.064-0.466,0.148-0.8,0.254-1.002c0.106-0.202,0.244-0.451,0.415-0.748
		c0.169-0.297,0.36-0.504,0.573-0.621c0.211-0.117,0.462-0.244,0.748-0.382c0.287-0.138,0.605-0.228,0.956-0.271
		c0.35-0.042,0.748-0.063,1.193-0.063c0.446,0,0.849,0.032,1.21,0.096c0.361,0.063,0.664,0.19,0.907,0.382
		c0.244,0.191,0.457,0.371,0.637,0.541c0.179,0.17,0.329,0.445,0.445,0.828c0.117,0.381,0.208,0.706,0.271,0.971
		c0.064,0.266,0.112,0.68,0.144,1.241c0.031,0.563,0.047,1.014,0.047,1.353v1.655l0.127,1.72l-6.494,0.159l0.127,0.796
		c0,2.716,0.106,4.287,0.318,4.711c0.339,0.7,0.732,1.104,1.178,1.21c0.297,0.085,0.875,0.127,1.735,0.127
		c0.86,0,1.883-0.138,3.072-0.415V30.751z M78.252,18.463c0,0.382,0,0.956,0,1.719l-0.127,0.796h4.521l-0.159-0.828
		c0-1.697-0.117-2.907-0.35-3.629c-0.234-0.721-0.759-1.083-1.576-1.083c-0.817,0-1.396,0.218-1.735,0.653
		C78.485,16.527,78.294,17.317,78.252,18.463z"/>
	<path display="inline" fill="#02458B" d="M87.452,29.605v-15.63c0.934,0,1.48,0.037,1.64,0.111
		c0.159,0.075,0.239,0.355,0.239,0.844v0.351l2.547-1.528c0.36,0,0.891,0.074,1.591,0.223c0,0.743-0.069,1.172-0.206,1.289
		c-0.139,0.116-0.6,0.175-1.385,0.175l-2.706,1.496l0.159,0.796V31.07c-0.934,0-1.48-0.063-1.639-0.191
		C87.532,30.751,87.452,30.328,87.452,29.605z"/>
	<path display="inline" fill="#02458B" d="M101.778,30.243c-0.254,0.318-0.595,0.557-1.019,0.716
		c-0.425,0.159-0.944,0.239-1.56,0.239s-1.878-0.159-3.788-0.478v-1.687c0.084,0,0.621,0.052,1.608,0.159
		c0.987,0.106,1.724,0.159,2.212,0.159c1.188,0,1.782-1.103,1.782-3.311c0-0.148,0-0.297,0-0.446
		c-0.021-0.679-0.679-1.512-1.974-2.499c-1.294-0.986-2.25-1.851-2.865-2.595c-0.616-0.742-0.923-1.496-0.923-2.26
		c0-0.764,0.011-1.294,0.032-1.592c0.021-0.297,0.095-0.669,0.223-1.114c0.127-0.446,0.318-0.764,0.573-0.955
		c0.657-0.53,1.655-0.796,2.992-0.796l3.024,0.446c0,0.934-0.383,1.4-1.146,1.4c-0.148,0-0.297-0.01-0.446-0.031l-1.305-0.191
		c-1.04,0-1.676,0.234-1.91,0.7c-0.191,0.403-0.287,0.993-0.287,1.767c0,0.775,0.828,1.82,2.483,3.135
		c0.764,0.573,1.342,1.03,1.735,1.369c0.393,0.34,0.775,0.785,1.146,1.337c0.371,0.552,0.557,1.087,0.557,1.607
		c0,0.521-0.011,0.966-0.031,1.337c-0.021,0.372-0.069,0.812-0.144,1.321c-0.074,0.51-0.19,0.934-0.35,1.273
		C102.239,29.595,102.032,29.924,101.778,30.243z"/>
	<path display="inline" fill="#02458B" d="M113.843,30.751c-1.634,0.36-2.775,0.541-3.421,0.541c-0.648,0-1.146-0.015-1.497-0.047
		s-0.668-0.117-0.956-0.255c-0.286-0.137-0.536-0.254-0.748-0.35c-0.212-0.095-0.403-0.287-0.573-0.573
		c-0.171-0.287-0.309-0.52-0.415-0.701c-0.106-0.18-0.19-0.494-0.255-0.939c-0.063-0.446-0.116-0.806-0.159-1.083
		c-0.042-0.276-0.074-0.727-0.096-1.353c-0.021-0.625-0.031-1.13-0.031-1.512v-3.597c0-1.401,0.031-2.309,0.095-2.722
		c0.063-0.414,0.127-0.854,0.19-1.322c0.064-0.466,0.149-0.8,0.255-1.002c0.106-0.202,0.244-0.451,0.415-0.748
		c0.169-0.297,0.36-0.504,0.573-0.621c0.211-0.117,0.462-0.244,0.748-0.382c0.287-0.138,0.605-0.228,0.956-0.271
		c0.35-0.042,0.748-0.063,1.193-0.063c0.446,0,0.849,0.032,1.209,0.096c0.361,0.063,0.664,0.19,0.908,0.382
		c0.244,0.191,0.457,0.371,0.637,0.541c0.18,0.17,0.329,0.445,0.445,0.828c0.117,0.381,0.207,0.706,0.271,0.971
		c0.064,0.266,0.112,0.68,0.144,1.241c0.031,0.563,0.047,1.014,0.047,1.353v1.655l0.128,1.72l-6.494,0.159l0.127,0.796
		c0,2.716,0.105,4.287,0.318,4.711c0.339,0.7,0.732,1.104,1.178,1.21c0.297,0.085,0.875,0.127,1.735,0.127
		c0.859,0,1.883-0.138,3.071-0.415V30.751z M107.731,18.463c0,0.382,0,0.956,0,1.719l-0.127,0.796h4.521l-0.159-0.828
		c0-1.697-0.117-2.907-0.35-3.629c-0.234-0.721-0.759-1.083-1.576-1.083c-0.817,0-1.396,0.218-1.735,0.653
		C107.964,16.527,107.773,17.317,107.731,18.463z"/>
	<path display="inline" fill="#02458B" d="M117.631,31.07h-0.7V8.119l5.157-0.35c6.207,0,6.207,2.546,6.207,6.494
		c0,3.916-0.063,6.43-6.175,6.43h-2.196v8.435C119.923,31.07,119.923,31.07,117.631,31.07z M122.119,17.86
		c3.087,0,3.087-1.019,3.087-3.597c0-2.61,0-3.661-3.087-3.661h-2.451l0.255,0.796v5.73l-0.255,0.732H122.119z"/>
	<path display="inline" fill="#02458B" d="M134.312,29.16c0,1.91,0,1.91-2.833,1.91V8.151c2.8,0,2.8,0,2.8,1.942v4.52l2.483-0.859
		c4.616,0,4.616,2.546,4.616,8.849v8.467c-2.866,0-2.866,0-2.866-1.91v-6.589c0-3.883,0-6.048-1.558-6.112l-2.93,0.859l0.288,0.892
		V29.16z"/>
	<path display="inline" fill="#02458B" d="M148.988,13.754c4.933,0,4.933,2.387,4.933,8.69c0,6.302-0.031,8.849-4.933,8.849
		c-4.872,0-4.902-2.515-4.902-8.849C144.085,16.109,144.116,13.754,148.988,13.754z M146.917,22.444c0,4.393,0,6.143,2.07,6.143
		c2.068,0,2.068-1.75,2.068-6.143c0-4.329,0-5.985-2.068-5.985C146.917,16.459,146.917,18.115,146.917,22.444z"/>
	<path display="inline" fill="#02458B" d="M159.62,31.07c-2.832,0-2.832,0-2.832-1.91V13.977c2.291,0,2.77,0,2.832,0.668
		l2.355-0.891c4.521,0,4.68,0.955,4.68,8.849v8.467c-2.865,0-2.865,0-2.865-1.91v-6.589c0-5.125,0.318-6.048-1.529-6.112
		l-2.928,0.859l0.287,0.892V31.07z"/>
	<path display="inline" fill="#02458B" d="M171.972,22.953l0.256,0.732c0,3.852,0,4.902,2.1,4.902c1.561,0,2.834-0.095,4.393-0.318
		v2.482c-1.559,0.287-2.801,0.541-4.393,0.541c-4.838,0-4.934-2.355-4.934-8.021c0-6.971-0.35-9.518,4.934-9.518
		c4.139,0,4.457,2.928,4.49,6.875l0.094,2.165L171.972,22.953z M172.132,20.215h4.17l-0.318-0.701
		c-0.033-2.164-0.223-3.056-1.656-3.056c-1.75,0-1.939,0.573-1.939,3.056L172.132,20.215z"/>
	<path display="inline" fill="#121212" d="M189.991,31.07h-7.926V8.149h0.254c0.912,0,1.447,0.063,1.607,0.191
		c0.158,0.127,0.24,0.552,0.24,1.273v18.846l-0.129,0.796h4.107c0.912,0,1.447,0.063,1.607,0.191
		c0.158,0.127,0.238,0.552,0.238,1.273V31.07z"/>
	<path display="inline" fill="#121212" d="M198.778,30.927c-0.299,0.096-0.447,0.143-0.447,0.143s-0.186,0.037-0.557,0.112
		c-0.373,0.074-0.816,0.111-1.338,0.111c-0.52,0-0.986-0.031-1.4-0.095c-0.414-0.063-0.773-0.201-1.08-0.414
		c-0.311-0.212-0.564-0.409-0.766-0.589c-0.203-0.18-0.371-0.504-0.51-0.972c-0.139-0.466-0.242-0.859-0.318-1.177
		c-0.076-0.318-0.127-0.844-0.16-1.576c-0.029-0.732-0.053-1.332-0.062-1.798c-0.012-0.467-0.016-1.209-0.016-2.229
		c0-1.019,0.004-1.756,0.016-2.213c0.01-0.456,0.033-1.05,0.062-1.783c0.033-0.732,0.084-1.252,0.16-1.56
		c0.076-0.307,0.18-0.689,0.318-1.146c0.139-0.456,0.307-0.769,0.51-0.939c0.201-0.169,0.461-0.35,0.779-0.542
		c0.488-0.339,1.152-0.509,1.99-0.509s1.441,0.037,1.814,0.111c0.371,0.075,0.705,0.154,1.004,0.239
		c0.295,0.085,0.551,0.26,0.764,0.525c0.211,0.266,0.391,0.488,0.541,0.668c0.148,0.181,0.266,0.5,0.35,0.955
		c0.084,0.457,0.154,0.828,0.207,1.114c0.053,0.287,0.096,0.77,0.127,1.449c0.031,0.68,0.047,1.231,0.047,1.656v1.974v0.127v1.942
		c0,1.443-0.041,2.393-0.127,2.849c-0.084,0.457-0.17,0.918-0.254,1.385s-0.201,0.791-0.35,0.971
		c-0.15,0.181-0.33,0.403-0.541,0.668C199.329,30.651,199.073,30.832,198.778,30.927z M198.937,23.175v-1.082
		c0-2.78-0.117-4.531-0.352-5.253c-0.338-0.912-1.037-1.379-2.098-1.4c-0.871,0-1.457,0.223-1.754,0.668
		c-0.17,0.298-0.307,0.573-0.412,0.828c-0.105,0.254-0.182,0.7-0.225,1.337c-0.062,0.934-0.094,1.836-0.094,2.706s0,1.746,0,2.626
		c0,0.881,0.008,1.64,0.031,2.276c0.021,0.637,0.111,1.311,0.27,2.022c0.16,0.711,0.408,1.173,0.748,1.385
		c0.342,0.212,0.766,0.318,1.275,0.318c0.508,0,0.9-0.048,1.178-0.143c0.273-0.096,0.504-0.276,0.684-0.541s0.318-0.53,0.414-0.796
		c0.094-0.265,0.164-0.685,0.207-1.257C198.896,26.04,198.937,24.81,198.937,23.175z"/>
	<path display="inline" fill="#121212" d="M210.046,30.927c-0.297,0.096-0.445,0.143-0.445,0.143s-0.188,0.037-0.557,0.112
		c-0.373,0.074-0.816,0.111-1.338,0.111c-0.52,0-0.986-0.031-1.402-0.095c-0.412-0.063-0.773-0.201-1.08-0.414
		c-0.309-0.212-0.562-0.409-0.764-0.589c-0.203-0.18-0.371-0.504-0.512-0.972c-0.137-0.466-0.242-0.859-0.316-1.177
		c-0.076-0.318-0.127-0.844-0.16-1.576c-0.031-0.732-0.053-1.332-0.062-1.798c-0.012-0.467-0.016-1.209-0.016-2.229
		c0-1.019,0.004-1.756,0.016-2.213c0.01-0.456,0.031-1.05,0.062-1.783c0.033-0.732,0.084-1.252,0.16-1.56
		c0.074-0.307,0.18-0.689,0.316-1.146c0.141-0.456,0.309-0.769,0.512-0.939c0.201-0.169,0.461-0.35,0.779-0.542
		c0.488-0.339,1.15-0.509,1.988-0.509c0.84,0,1.443,0.037,1.816,0.111c0.369,0.075,0.705,0.154,1.002,0.239
		c0.297,0.085,0.553,0.26,0.766,0.525c0.211,0.266,0.391,0.488,0.541,0.668c0.146,0.181,0.264,0.5,0.348,0.955
		c0.084,0.457,0.154,0.828,0.207,1.114c0.053,0.287,0.098,0.77,0.129,1.449c0.031,0.68,0.047,1.231,0.047,1.656v1.974v0.127v1.942
		c0,1.443-0.041,2.393-0.127,2.849c-0.086,0.457-0.172,0.918-0.256,1.385s-0.201,0.791-0.348,0.971
		c-0.15,0.181-0.33,0.403-0.541,0.668C210.599,30.651,210.343,30.832,210.046,30.927z M210.206,23.175v-1.082
		c0-2.78-0.117-4.531-0.352-5.253c-0.338-0.912-1.039-1.379-2.1-1.4c-0.871,0-1.455,0.223-1.752,0.668
		c-0.17,0.298-0.307,0.573-0.414,0.828c-0.105,0.254-0.18,0.7-0.223,1.337c-0.064,0.934-0.094,1.836-0.094,2.706s0,1.746,0,2.626
		c0,0.881,0.008,1.64,0.029,2.276c0.023,0.637,0.111,1.311,0.271,2.022s0.408,1.173,0.748,1.385s0.766,0.318,1.275,0.318
		c0.508,0,0.9-0.048,1.178-0.143c0.273-0.096,0.502-0.276,0.684-0.541c0.178-0.265,0.318-0.53,0.414-0.796
		c0.094-0.265,0.164-0.685,0.205-1.257C210.163,26.04,210.206,24.81,210.206,23.175z"/>
	<path display="inline" fill="#121212" d="M215.458,29.605V7.767c0.934,0,1.48,0.064,1.641,0.191
		c0.158,0.127,0.238,0.552,0.238,1.273V31.07c-0.934,0-1.48-0.063-1.639-0.191C215.538,30.751,215.458,30.328,215.458,29.605z
		 M224.054,31.07h-2.068l-4.268-9.327l3.82-7.768h1.941l-3.85,7.768L224.054,31.07z"/>
	<path display="inline" fill="#121212" d="M226.124,22.443v-8.468c0.932,0,1.479,0.058,1.637,0.175
		c0.16,0.117,0.24,0.546,0.24,1.289v6.94c0,2.462,0.068,4.144,0.207,5.046c0.137,0.902,0.35,1.491,0.635,1.767
		c0.289,0.276,0.674,0.414,1.162,0.414l3.152-1.464l-0.158-0.796v-13.37c0.934,0,1.48,0.058,1.639,0.175s0.238,0.546,0.238,1.289
		V31.07c-0.934,0-1.48-0.053-1.639-0.159c-0.16-0.106-0.238-0.478-0.238-1.114l-2.865,1.496c-1.338,0-2.389-0.414-3.152-1.241
		c-0.486-0.552-0.764-1.953-0.828-4.203C226.132,25.148,226.124,24.014,226.124,22.443z"/>
	<path display="inline" fill="#121212" d="M238.062,35.973V13.975c0.912,0,1.447,0.026,1.607,0.079
		c0.158,0.053,0.236,0.239,0.236,0.557l2.549-0.859c1.484,0,2.578,0.446,3.277,1.337c0.574,0.722,0.914,2.133,1.02,4.234
		c0.043,0.807,0.064,1.846,0.064,3.12s-0.016,2.276-0.047,3.008c-0.035,0.732-0.102,1.464-0.207,2.197
		c-0.109,0.732-0.256,1.295-0.447,1.687c-0.191,0.393-0.445,0.759-0.764,1.098c-0.596,0.574-1.602,0.859-3.025,0.859l-2.42-1.464
		v7.608c-0.912,0-1.447-0.063-1.607-0.19C238.14,37.119,238.062,36.694,238.062,35.973z M244.444,28.125
		c0.328-0.987,0.492-2.796,0.492-5.428c0-2.632-0.17-4.5-0.51-5.603c-0.338-1.104-1.049-1.656-2.133-1.656l-2.482,0.795l0.127,0.796
		v10.346l-0.158,0.796l2.482,1.433C243.388,29.605,244.114,29.112,244.444,28.125z"/>
</g>
<g id="bv_logo_color_gray">
	<linearGradient id="SVGID_1_" gradientUnits="userSpaceOnUse" x1="18.395" y1="28.5508" x2="18.395" y2="2.3054">
		<stop  offset="0" style="stop-color:#68A542"/>
		<stop  offset="1" style="stop-color:#74B64A"/>
	</linearGradient>
	<path fill="url(#SVGID_1_)" d="M18.395,2.87C9.339,2.87,2,10.21,2,19.264c0,6.19,3.432,11.577,8.495,14.367l-0.733-9.967
		c0-1.537,1.291-2.782,2.883-2.782h11.5c1.593,0,2.883,1.245,2.883,2.782l-0.731,9.967c5.062-2.79,8.494-8.176,8.494-14.367
		C34.79,10.21,27.45,2.87,18.395,2.87z M18.395,19.703c-3.833,0-6.941-3.108-6.941-6.941c0-3.833,3.108-6.942,6.941-6.942
		c3.834,0,6.942,3.109,6.942,6.942C25.337,16.594,22.229,19.703,18.395,19.703z"/>
	<path fill="#303030" d="M39.38,9.266c0-0.95,0.465-1.687,1.559-1.687h5.138c4.177,0,6.366,3.128,6.366,5.977
		c0,2.741-1.359,4.851-3.282,5.483v0.071c2.852,0.316,5.106,2.881,5.106,6.187c0,3.938-2.751,7.312-7.726,7.312h-5.602
		c-1.094,0-1.559-0.739-1.559-1.688V9.266z M42.297,18.161h3.315c2.487,0,3.913-1.758,3.913-4.043c0-2.25-1.227-3.867-3.812-3.867
		h-3.416V18.161z M42.297,29.937h4.112c2.85,0,4.938-1.863,4.938-4.64c0-2.566-1.757-4.604-4.808-4.604h-4.243V29.937z"/>
	<path fill="#303030" d="M58.117,24.453c0,3.2,1.922,5.695,5.205,5.695c3.879,0,4.873-2.532,5.967-2.532
		c0.531,0,1.061,0.492,1.061,1.372c0,1.512-3.613,3.831-7.061,3.831c-5.636,0-8.09-4.605-8.09-9.562
		c0-5.061,2.984-9.561,7.924-9.561c4.806,0,7.591,4.604,7.591,9.105c0,1.089-0.365,1.652-1.625,1.652H58.117z M67.797,22.132
		c0-2.671-1.458-5.765-4.673-5.765c-3.615-0.141-4.908,2.917-5.007,5.765H67.797z"/>
	<path fill="#303030" d="M74.434,24.453c0,3.2,1.923,5.695,5.205,5.695c3.879,0,4.873-2.532,5.968-2.532
		c0.529,0,1.06,0.492,1.06,1.372c0,1.512-3.614,3.831-7.062,3.831c-5.635,0-8.088-4.605-8.088-9.562
		c0-5.061,2.982-9.561,7.923-9.561c4.807,0,7.592,4.604,7.592,9.105c0,1.089-0.365,1.652-1.625,1.652H74.434z M84.115,22.132
		c0-2.671-1.459-5.765-4.675-5.765c-3.614-0.141-4.906,2.917-5.006,5.765H84.115z"/>
	<path fill="#303030" d="M88.433,15.348c0-1.02,0.564-1.652,1.459-1.652c0.895,0,1.459,0.632,1.459,1.652v0.739l0.065,0.07
		c1.292-1.758,3.118-2.461,4.874-2.461c2.718,0,6.132,1.828,6.132,7.102v10.371c0,1.019-0.562,1.651-1.458,1.651
		c-0.895,0-1.459-0.632-1.459-1.651V20.972c0-3.269-2.154-4.604-4.077-4.604c-1.922,0-4.077,1.335-4.077,4.604v10.197
		c0,1.019-0.565,1.651-1.459,1.651c-0.895,0-1.459-0.632-1.459-1.651V15.348z"/>
	<linearGradient id="SVGID_2_" gradientUnits="userSpaceOnUse" x1="112.3159" y1="32.2266" x2="112.3159" y2="6.1684">
		<stop  offset="0" style="stop-color:#68A542"/>
		<stop  offset="1" style="stop-color:#74B64A"/>
	</linearGradient>
	<path fill="url(#SVGID_2_)" d="M102.603,11.2c-0.166-0.457-0.232-0.809-0.232-1.301c0-1.477,1.226-2.531,2.553-2.531
		c1.127,0,1.823,0.774,2.254,1.723l5.139,14.624l5.137-14.624c0.432-0.948,1.128-1.723,2.255-1.723c1.327,0,2.552,1.055,2.552,2.531
		c0,0.492-0.065,0.844-0.229,1.301l-7.26,19.582c-0.435,1.125-0.997,2.038-2.455,2.038c-1.46,0-2.024-0.913-2.454-2.038
		L102.603,11.2z"/>
	<linearGradient id="SVGID_3_" gradientUnits="userSpaceOnUse" x1="128.2871" y1="32.2261" x2="128.2871" y2="6.1686">
		<stop  offset="0" style="stop-color:#68A542"/>
		<stop  offset="1" style="stop-color:#74B64A"/>
	</linearGradient>
	<path fill="url(#SVGID_3_)" d="M124.591,24.944c0.333,2.498,2.288,3.657,4.508,3.657c2.456,0,4.145-2.039,5.405-2.039
		c1.027,0,1.957,1.09,1.957,2.179c0,2.18-4.244,4.289-7.792,4.289c-5.37,0-8.951-4.148-8.951-9.738c0-5.131,3.516-9.807,8.553-9.807
		c5.172,0,8.587,4.992,8.587,9.21c0,1.512-0.63,2.249-2.089,2.249H124.591z M132.083,21.57c-0.264-2.214-1.59-3.867-3.812-3.867
		c-2.121,0-3.546,1.723-3.779,3.867H132.083z"/>
	<linearGradient id="SVGID_4_" gradientUnits="userSpaceOnUse" x1="143.7339" y1="32.2266" x2="143.7339" y2="6.1686">
		<stop  offset="0" style="stop-color:#68A542"/>
		<stop  offset="1" style="stop-color:#74B64A"/>
	</linearGradient>
	<path fill="url(#SVGID_4_)" d="M138.479,16.227c0-1.688,1.261-2.531,2.454-2.531c1.26,0,2.32,0.492,2.32,2.109h0.066
		c0.896-1.406,1.856-2.109,3.349-2.109c1.16,0,2.32,0.878,2.32,2.707c0,1.652-1.425,1.758-2.851,2.46
		c-1.425,0.704-2.884,1.371-2.884,3.376v7.769c0,1.687-0.994,2.812-2.386,2.812c-1.392,0-2.388-1.125-2.388-2.812V16.227z"/>
	<linearGradient id="SVGID_5_" gradientUnits="userSpaceOnUse" x1="151.9048" y1="32.2266" x2="151.9048" y2="6.1691">
		<stop  offset="0" style="stop-color:#68A542"/>
		<stop  offset="1" style="stop-color:#74B64A"/>
	</linearGradient>
	<path fill="url(#SVGID_5_)" d="M154.59,8.879c0,1.582-1.192,2.918-2.685,2.918c-1.424,0-2.685-1.372-2.685-2.918
		c0-1.441,1.261-2.776,2.685-2.776C153.33,6.103,154.59,7.403,154.59,8.879z M149.52,16.508c0-1.688,0.994-2.812,2.385-2.812
		c1.392,0,2.386,1.125,2.386,2.812v13.5c0,1.687-0.994,2.812-2.386,2.812c-1.392,0-2.385-1.125-2.385-2.812V16.508z"/>
	<linearGradient id="SVGID_6_" gradientUnits="userSpaceOnUse" x1="160.8057" y1="32.2266" x2="160.8057" y2="6.1683">
		<stop  offset="0" style="stop-color:#68A542"/>
		<stop  offset="1" style="stop-color:#74B64A"/>
	</linearGradient>
	<path fill="url(#SVGID_6_)" d="M158.037,18.336h-1.061c-1.293,0-2.09-0.844-2.09-2.214c0-1.266,0.896-2.215,2.09-2.215h1.061
		v-2.602c0-3.726,2.09-5.765,5.007-5.765c1.69,0,3.315,0.527,3.315,2.286c0,1.476-0.63,2.144-1.956,2.144
		c-0.797,0-1.592,0-1.592,1.863v2.075h1.491c1.427,0,2.421,0.597,2.421,2.215c0,1.582-1.027,2.214-2.421,2.214h-1.491v11.672
		c0,1.687-0.994,2.812-2.388,2.812c-1.391,0-2.387-1.125-2.387-2.812V18.336z"/>
	<linearGradient id="SVGID_7_" gradientUnits="userSpaceOnUse" x1="169.9971" y1="32.2266" x2="169.9971" y2="6.1691">
		<stop  offset="0" style="stop-color:#68A542"/>
		<stop  offset="1" style="stop-color:#74B64A"/>
	</linearGradient>
	<path fill="url(#SVGID_7_)" d="M172.682,8.879c0,1.582-1.192,2.918-2.684,2.918c-1.425,0-2.687-1.372-2.687-2.918
		c0-1.441,1.262-2.776,2.687-2.776C171.421,6.103,172.682,7.403,172.682,8.879z M167.609,16.508c0-1.688,0.995-2.812,2.389-2.812
		c1.391,0,2.385,1.125,2.385,2.812v13.5c0,1.687-0.994,2.812-2.385,2.812c-1.394,0-2.389-1.125-2.389-2.812V16.508z"/>
	<linearGradient id="SVGID_8_" gradientUnits="userSpaceOnUse" x1="182.5771" y1="32.2261" x2="182.5771" y2="6.1686">
		<stop  offset="0" style="stop-color:#68A542"/>
		<stop  offset="1" style="stop-color:#74B64A"/>
	</linearGradient>
	<path fill="url(#SVGID_8_)" d="M178.881,24.944c0.332,2.498,2.286,3.657,4.508,3.657c2.454,0,4.145-2.039,5.404-2.039
		c1.029,0,1.956,1.09,1.956,2.179c0,2.18-4.243,4.289-7.791,4.289c-5.37,0-8.951-4.148-8.951-9.738c0-5.131,3.516-9.807,8.556-9.807
		c5.17,0,8.584,4.992,8.584,9.21c0,1.512-0.63,2.249-2.088,2.249H178.881z M186.372,21.57c-0.264-2.214-1.59-3.867-3.81-3.867
		c-2.123,0-3.55,1.723-3.782,3.867H186.372z"/>
	<path fill="#303030" d="M216.05,32.361c0-0.445,0.363-0.808,0.809-0.808c0.444,0,0.809,0.363,0.809,0.808s-0.364,0.808-0.809,0.808
		C216.413,33.169,216.05,32.806,216.05,32.361z"/>
	<path fill="#303030" d="M213.566,26.841c0,0.372-0.292,0.705-0.292,1.181c0,0.848,0.756,1.253,1.523,1.253
		c0.734,0,1.499-0.446,1.499-1.253c0-0.372-0.309-0.933-0.309-1.109c0-0.351,0.301-0.641,0.651-0.641
		c0.768,0,1.027,1.284,1.027,1.821c0,1.606-1.316,2.671-2.869,2.671c-1.514,0-2.891-1.096-2.891-2.671
		c0-0.59,0.219-1.821,0.942-1.821C213.16,26.272,213.566,26.489,213.566,26.841z"/>
	<path fill="#303030" d="M214.798,20.628c1.553,0,2.869,1.067,2.869,2.672c0,1.605-1.316,2.672-2.869,2.672
		c-1.514,0-2.891-1.099-2.891-2.672C211.907,21.726,213.284,20.628,214.798,20.628z M214.798,24.48c0.712,0,1.499-0.374,1.499-1.18
		c0-0.808-0.787-1.18-1.499-1.18c-0.717,0-1.523,0.361-1.523,1.18C213.274,24.118,214.081,24.48,214.798,24.48z"/>
	<path fill="#303030" d="M212.799,19.996c-0.498,0-0.829-0.309-0.829-0.745c0-0.383,0.207-0.632,0.56-0.684
		c-0.394-0.363-0.622-0.838-0.622-1.387c0-0.622,0.26-1.15,0.756-1.543c-0.475-0.415-0.756-1.067-0.756-1.575
		c0-1.211,0.704-2.039,2.009-2.039h2.859c0.496,0,0.826,0.31,0.826,0.746c0,0.435-0.33,0.745-0.826,0.745h-2.6
		c-0.602,0-1.025,0.331-1.025,0.87c0,0.549,0.424,0.88,1.025,0.88h2.6c0.496,0,0.826,0.311,0.826,0.746s-0.33,0.746-0.826,0.746
		h-2.6c-0.602,0-1.025,0.332-1.025,0.87c0,0.611,0.424,0.88,1.025,0.88h2.6c0.496,0,0.826,0.311,0.826,0.746
		c0,0.436-0.33,0.745-0.826,0.745H212.799z"/>
	<linearGradient id="SVGID_9_" gradientUnits="userSpaceOnUse" x1="20.5796" y1="32.0493" x2="20.5796" y2="24.1149">
		<stop  offset="0" style="stop-color:#68A542"/>
		<stop  offset="1" style="stop-color:#74B64A"/>
	</linearGradient>
	<polygon fill="url(#SVGID_9_)" points="22.479,29.152 25.385,27.051 21.687,27.051 20.58,24.115 19.472,27.051 15.773,27.051 
		18.68,29.153 17.256,32.925 20.58,30.525 23.902,32.925 	"/>
	<linearGradient id="SVGID_10_" gradientUnits="userSpaceOnUse" x1="200.6436" y1="32.2261" x2="200.6436" y2="6.168">
		<stop  offset="0" style="stop-color:#68A542"/>
		<stop  offset="1" style="stop-color:#74B64A"/>
	</linearGradient>
	<path fill="url(#SVGID_10_)" d="M206.759,5.54c-1.391,0-2.385,1.125-2.385,2.812v6.891c-1.262-1.161-2.885-1.758-4.544-1.758
		c-5.138,0-7.69,5.097-7.69,10.019c0,4.781,3.051,9.526,7.858,9.526c1.623,0,3.48-0.773,4.376-2.319
		c0.297,1.336,1.059,2.108,2.385,2.108c1.394,0,2.388-1.125,2.388-2.812V8.352C209.146,6.665,208.152,5.54,206.759,5.54z
		 M202.711,23.442l1.561,4.138l-3.643-2.634l-3.644,2.634l1.56-4.138l-3.186-2.303h4.056l1.214-3.22l1.217,3.22h4.052
		L202.711,23.442z"/>
	<g>
		<path fill="#303030" d="M222.083,6.11v0.505h-0.854v2.344h-0.598V6.615h-0.856V6.11H222.083z"/>
		<path fill="#303030" d="M224.32,6.11h0.855v2.849h-0.553V7.032c0-0.056,0-0.132,0-0.233c0.002-0.099,0.004-0.177,0.004-0.23
			l-0.543,2.391h-0.576l-0.537-2.391c0,0.054,0.002,0.132,0.004,0.23c0,0.101,0.002,0.178,0.002,0.233v1.927h-0.556V6.11h0.866
			l0.518,2.24L224.32,6.11z"/>
	</g>
</g>
</svg>
