<?xml version="1.0" encoding="utf-8"?>
<!-- Generator: Adobe Illustrator 16.0.0, SVG Export Plug-In . SVG Version: 6.00 Build 0)  -->
<!DOCTYPE svg PUBLIC "-//W3C//DTD SVG 1.1//EN" "http://www.w3.org/Graphics/SVG/1.1/DTD/svg11.dtd">
<svg version="1.1" xmlns="http://www.w3.org/2000/svg" xmlns:xlink="http://www.w3.org/1999/xlink" x="0px" y="0px" width="195px"
	 height="28px" viewBox="0 0 195 28" enable-background="new 0 0 195 28" xml:space="preserve">
<g id="Layer_2">
</g>
<g id="Layer_1">
	<linearGradient id="SVGID_1_" gradientUnits="userSpaceOnUse" x1="14.1929" y1="23.6025" x2="14.1929" y2="0.8829">
		<stop  offset="0" style="stop-color:#68A542"/>
		<stop  offset="1" style="stop-color:#74B64A"/>
	</linearGradient>
	<path fill="url(#SVGID_1_)" d="M14.192,1.371C6.354,1.371,0,7.726,0,15.562C0,20.922,2.97,25.586,7.354,28l-0.635-8.627
		c0-1.331,1.118-2.41,2.497-2.41h9.954c1.377,0,2.496,1.079,2.496,2.41L21.032,28c4.383-2.414,7.354-7.078,7.354-12.438
		C28.385,7.726,22.03,1.371,14.192,1.371z M14.192,15.943c-3.318,0-6.009-2.691-6.009-6.009c0-3.319,2.691-6.01,6.009-6.01
		s6.01,2.69,6.01,6.01C20.202,13.252,17.51,15.943,14.192,15.943z"/>
	<g>
		<path fill="#FFFFFF" d="M32.358,6.908c0-0.822,0.402-1.46,1.349-1.46h4.448c3.616,0,5.511,2.708,5.511,5.173
			c0,2.374-1.177,4.2-2.841,4.748v0.061c2.468,0.274,4.419,2.496,4.419,5.357c0,3.407-2.381,6.328-6.687,6.328h-4.85
			c-0.947,0-1.349-0.639-1.349-1.46V6.908z M34.884,14.607h2.87c2.153,0,3.387-1.521,3.387-3.499c0-1.948-1.062-3.348-3.3-3.348
			h-2.957V14.607z M34.884,24.803h3.558c2.469,0,4.277-1.613,4.277-4.017c0-2.223-1.521-3.987-4.162-3.987h-3.673V24.803z"/>
		<path fill="#FFFFFF" d="M48.578,20.055c0,2.769,1.665,4.93,4.505,4.93c3.358,0,4.219-2.19,5.166-2.19
			c0.459,0,0.918,0.426,0.918,1.187c0,1.309-3.128,3.316-6.112,3.316c-4.879,0-7.003-3.985-7.003-8.277
			c0-4.381,2.582-8.277,6.859-8.277c4.161,0,6.572,3.987,6.572,7.881c0,0.943-0.316,1.431-1.406,1.431H48.578z M56.958,18.047
			c0-2.313-1.262-4.991-4.046-4.991c-3.127-0.122-4.247,2.525-4.333,4.991H56.958z"/>
		<path fill="#FFFFFF" d="M62.702,20.055c0,2.769,1.665,4.93,4.506,4.93c3.358,0,4.219-2.19,5.165-2.19
			c0.46,0,0.919,0.426,0.919,1.187c0,1.309-3.128,3.316-6.112,3.316c-4.879,0-7.002-3.985-7.002-8.277
			c0-4.381,2.583-8.277,6.858-8.277c4.162,0,6.573,3.987,6.573,7.881c0,0.943-0.316,1.431-1.406,1.431H62.702z M71.082,18.047
			c0-2.313-1.262-4.991-4.046-4.991c-3.128-0.122-4.248,2.525-4.333,4.991H71.082z"/>
		<path fill="#FFFFFF" d="M74.821,12.173c0-0.882,0.488-1.43,1.263-1.43c0.774,0,1.262,0.548,1.262,1.43v0.639l0.058,0.062
			c1.12-1.523,2.698-2.131,4.218-2.131c2.354,0,5.31,1.583,5.31,6.148v8.977c0,0.882-0.487,1.43-1.263,1.43
			c-0.774,0-1.262-0.548-1.262-1.43v-8.825c0-2.83-1.865-3.986-3.53-3.986c-1.665,0-3.53,1.156-3.53,3.986v8.825
			c0,0.882-0.487,1.43-1.262,1.43c-0.775,0-1.263-0.548-1.263-1.43V12.173z"/>
		<linearGradient id="SVGID_2_" gradientUnits="userSpaceOnUse" x1="95.4956" y1="26.7832" x2="95.4956" y2="4.2264">
			<stop  offset="0" style="stop-color:#68A542"/>
			<stop  offset="1" style="stop-color:#74B64A"/>
		</linearGradient>
		<path fill="url(#SVGID_2_)" d="M87.087,8.583c-0.144-0.396-0.201-0.7-0.201-1.126c0-1.278,1.062-2.191,2.209-2.191
			c0.976,0,1.579,0.67,1.951,1.491l4.449,12.659l4.449-12.659c0.372-0.821,0.976-1.491,1.95-1.491c1.148,0,2.21,0.914,2.21,2.191
			c0,0.426-0.057,0.73-0.199,1.126l-6.285,16.95c-0.375,0.975-0.862,1.765-2.125,1.765s-1.75-0.79-2.124-1.765L87.087,8.583z"/>
		<linearGradient id="SVGID_3_" gradientUnits="userSpaceOnUse" x1="109.3203" y1="26.7842" x2="109.3203" y2="4.227">
			<stop  offset="0" style="stop-color:#68A542"/>
			<stop  offset="1" style="stop-color:#74B64A"/>
		</linearGradient>
		<path fill="url(#SVGID_3_)" d="M106.121,20.48c0.288,2.161,1.979,3.165,3.903,3.165c2.122,0,3.587-1.766,4.678-1.766
			c0.889,0,1.692,0.943,1.692,1.888c0,1.887-3.673,3.712-6.745,3.712c-4.648,0-7.748-3.591-7.748-8.429
			c0-4.443,3.043-8.491,7.405-8.491c4.477,0,7.434,4.321,7.434,7.972c0,1.309-0.546,1.949-1.808,1.949H106.121z M112.605,17.56
			c-0.229-1.918-1.377-3.348-3.299-3.348c-1.839,0-3.07,1.491-3.271,3.348H112.605z"/>
		<linearGradient id="SVGID_4_" gradientUnits="userSpaceOnUse" x1="122.6914" y1="26.7842" x2="122.6914" y2="4.2279">
			<stop  offset="0" style="stop-color:#68A542"/>
			<stop  offset="1" style="stop-color:#74B64A"/>
		</linearGradient>
		<path fill="url(#SVGID_4_)" d="M118.144,12.934c0-1.46,1.091-2.191,2.124-2.191c1.091,0,2.008,0.426,2.008,1.826h0.059
			c0.774-1.218,1.607-1.826,2.898-1.826c1.005,0,2.008,0.761,2.008,2.343c0,1.43-1.232,1.521-2.467,2.129
			c-1.234,0.609-2.498,1.188-2.498,2.924v6.724c0,1.462-0.86,2.435-2.065,2.435s-2.066-0.973-2.066-2.435V12.934z"/>
		<linearGradient id="SVGID_5_" gradientUnits="userSpaceOnUse" x1="129.7656" y1="26.7832" x2="129.7656" y2="4.2266">
			<stop  offset="0" style="stop-color:#68A542"/>
			<stop  offset="1" style="stop-color:#74B64A"/>
		</linearGradient>
		<path fill="url(#SVGID_5_)" d="M132.09,6.573c0,1.37-1.032,2.527-2.323,2.527c-1.235,0-2.326-1.188-2.326-2.527
			c0-1.248,1.091-2.404,2.326-2.404C131,4.169,132.09,5.295,132.09,6.573z M127.699,13.178c0-1.461,0.861-2.435,2.067-2.435
			c1.204,0,2.064,0.974,2.064,2.435v11.685c0,1.462-0.86,2.435-2.064,2.435c-1.206,0-2.067-0.973-2.067-2.435V13.178z"/>
		<linearGradient id="SVGID_6_" gradientUnits="userSpaceOnUse" x1="137.4707" y1="26.7832" x2="137.4707" y2="4.2263">
			<stop  offset="0" style="stop-color:#68A542"/>
			<stop  offset="1" style="stop-color:#74B64A"/>
		</linearGradient>
		<path fill="url(#SVGID_6_)" d="M135.074,14.76h-0.918c-1.119,0-1.809-0.731-1.809-1.917c0-1.095,0.773-1.917,1.809-1.917h0.918
			V8.673c0-3.226,1.808-4.991,4.334-4.991c1.462,0,2.869,0.457,2.869,1.979c0,1.277-0.544,1.856-1.693,1.856
			c-0.688,0-1.377,0-1.377,1.612v1.796h1.292c1.234,0,2.094,0.517,2.094,1.917c0,1.37-0.891,1.917-2.094,1.917h-1.292v10.103
			c0,1.462-0.862,2.435-2.066,2.435c-1.205,0-2.066-0.973-2.066-2.435V14.76z"/>
		<linearGradient id="SVGID_7_" gradientUnits="userSpaceOnUse" x1="145.4258" y1="26.7832" x2="145.4258" y2="4.2266">
			<stop  offset="0" style="stop-color:#68A542"/>
			<stop  offset="1" style="stop-color:#74B64A"/>
		</linearGradient>
		<path fill="url(#SVGID_7_)" d="M147.75,6.573c0,1.37-1.032,2.527-2.323,2.527c-1.234,0-2.325-1.188-2.325-2.527
			c0-1.248,1.091-2.404,2.325-2.404S147.75,5.295,147.75,6.573z M143.36,13.178c0-1.461,0.86-2.435,2.066-2.435
			c1.207,0,2.066,0.974,2.066,2.435v11.685c0,1.462-0.859,2.435-2.066,2.435c-1.206,0-2.066-0.973-2.066-2.435V13.178z"/>
		<linearGradient id="SVGID_8_" gradientUnits="userSpaceOnUse" x1="156.3164" y1="26.7842" x2="156.3164" y2="4.227">
			<stop  offset="0" style="stop-color:#68A542"/>
			<stop  offset="1" style="stop-color:#74B64A"/>
		</linearGradient>
		<path fill="url(#SVGID_8_)" d="M153.117,20.48c0.286,2.161,1.979,3.165,3.903,3.165c2.123,0,3.587-1.766,4.676-1.766
			c0.892,0,1.694,0.943,1.694,1.888c0,1.887-3.674,3.712-6.744,3.712c-4.649,0-7.749-3.591-7.749-8.429
			c0-4.443,3.043-8.491,7.405-8.491c4.476,0,7.433,4.321,7.433,7.972c0,1.309-0.545,1.949-1.808,1.949H153.117z M159.603,17.56
			c-0.231-1.918-1.378-3.348-3.3-3.348c-1.838,0-3.071,1.491-3.272,3.348H159.603z"/>
	</g>
	<g>
		<path fill="#FFFFFF" d="M185.292,26.899c0-0.386,0.314-0.699,0.699-0.699c0.386,0,0.7,0.313,0.7,0.699
			c0,0.387-0.314,0.699-0.7,0.699C185.606,27.599,185.292,27.286,185.292,26.899z"/>
		<path fill="#FFFFFF" d="M183.142,22.123c0,0.322-0.251,0.608-0.251,1.021c0,0.736,0.653,1.086,1.317,1.086
			c0.637,0,1.3-0.387,1.3-1.086c0-0.322-0.269-0.807-0.269-0.96c0-0.304,0.26-0.555,0.563-0.555c0.664,0,0.889,1.112,0.889,1.577
			c0,1.391-1.141,2.313-2.483,2.313c-1.309,0-2.502-0.95-2.502-2.313c0-0.51,0.188-1.577,0.817-1.577
			C182.792,21.629,183.142,21.817,183.142,22.123z"/>
		<path fill="#FFFFFF" d="M184.208,16.743c1.343,0,2.483,0.925,2.483,2.313s-1.141,2.313-2.483,2.313
			c-1.309,0-2.502-0.951-2.502-2.313C181.706,17.693,182.899,16.743,184.208,16.743z M184.208,20.077c0.617,0,1.3-0.321,1.3-1.021
			s-0.683-1.022-1.3-1.022c-0.618,0-1.317,0.314-1.317,1.022S183.59,20.077,184.208,20.077z"/>
		<path fill="#FFFFFF" d="M182.478,16.197c-0.43,0-0.717-0.27-0.717-0.645c0-0.333,0.18-0.548,0.484-0.593
			c-0.341-0.313-0.539-0.726-0.539-1.201c0-0.538,0.224-0.996,0.654-1.335c-0.411-0.359-0.654-0.924-0.654-1.363
			c0-1.049,0.61-1.766,1.739-1.766h2.475c0.43,0,0.717,0.269,0.717,0.646s-0.287,0.646-0.717,0.646h-2.25
			c-0.52,0-0.887,0.287-0.887,0.752c0,0.476,0.367,0.762,0.887,0.762h2.25c0.43,0,0.717,0.269,0.717,0.646
			c0,0.376-0.287,0.645-0.717,0.645h-2.25c-0.52,0-0.887,0.288-0.887,0.753c0,0.529,0.367,0.762,0.887,0.762h2.25
			c0.43,0,0.717,0.268,0.717,0.646c0,0.375-0.287,0.645-0.717,0.645H182.478z"/>
	</g>
	<linearGradient id="SVGID_9_" gradientUnits="userSpaceOnUse" x1="16.0835" y1="26.6309" x2="16.0835" y2="19.7623">
		<stop  offset="0" style="stop-color:#68A542"/>
		<stop  offset="1" style="stop-color:#74B64A"/>
	</linearGradient>
	<polygon fill="url(#SVGID_9_)" points="17.728,24.122 20.244,22.304 17.042,22.304 16.084,19.763 15.125,22.304 11.923,22.304 
		14.439,24.124 13.207,27.39 16.084,25.311 18.96,27.39 	"/>
	<linearGradient id="SVGID_10_" gradientUnits="userSpaceOnUse" x1="171.9551" y1="26.7842" x2="171.9551" y2="4.227">
		<stop  offset="0" style="stop-color:#68A542"/>
		<stop  offset="1" style="stop-color:#74B64A"/>
	</linearGradient>
	<path fill="url(#SVGID_10_)" d="M177.251,3.682c-1.206,0-2.065,0.975-2.065,2.435v5.965c-1.093-1.005-2.498-1.522-3.934-1.522
		c-4.447,0-6.657,4.413-6.657,8.674c0,4.138,2.64,8.246,6.801,8.246c1.406,0,3.014-0.669,3.79-2.009
		c0.257,1.158,0.918,1.826,2.065,1.826c1.206,0,2.065-0.973,2.065-2.435V6.117C179.316,4.657,178.457,3.682,177.251,3.682z
		 M173.747,19.179l1.35,3.583l-3.152-2.278l-3.155,2.278l1.353-3.583l-2.76-1.993h3.511l1.052-2.787l1.05,2.787h3.511
		L173.747,19.179z"/>
	<rect x="188.462" y="4.179" fill="none" width="9.859" height="5.609"/>
	<text transform="matrix(1 0 0 1 188.4629 6.6426)" fill="#FFFFFF" font-family="'Helvetica-Bold'" font-size="3.4265">TM</text>
</g>
</svg>
